<svg width="289" height="117" viewBox="0 0 289 117" fill="none" xmlns="http://www.w3.org/2000/svg">
<g clip-path="url(#clip0_3572_7454)">
<path d="M34.6183 115.884H30.4912V89.3809H53.0556V93.129H34.6183V101.004H51.9202V104.752H34.6183V115.884Z" fill="#DD303E"/>
<path d="M82.0587 115.884H77.9316L76.4542 107.63H60.628L59.1506 115.884H55.0234L57.9006 99.6416C59.3022 91.7294 62.1794 88.7764 68.5384 88.7764C74.8975 88.7764 77.7765 91.7294 79.178 99.6416L82.0552 115.884H82.0587ZM61.312 103.882H75.7755L75.0562 99.7544C74.1482 94.529 72.3676 92.5227 68.5437 92.5227C64.7198 92.5227 62.978 94.492 62.0313 99.7544L61.312 103.882Z" fill="#DD303E"/>
<path d="M85.3516 102.633C85.3516 93.4342 90.0464 88.7764 99.3602 88.7764C107.348 88.7764 111.891 92.1084 113.066 98.8853H108.826C107.803 94.6453 104.774 92.5245 99.3602 92.5245C92.6591 92.5245 89.4787 95.7807 89.4787 102.633C89.4787 109.486 92.6591 112.742 99.3602 112.742C104.774 112.742 107.803 110.621 108.826 106.381H113.066C111.891 113.158 107.348 116.49 99.3602 116.49C90.0464 116.49 85.3516 111.834 85.3516 102.633Z" fill="#DD303E"/>
<path d="M138.999 89.3828H143.126V103.58C143.126 112.287 138.923 116.49 130.253 116.49C121.583 116.49 117.38 112.287 117.38 103.58V89.3828H121.507V103.58C121.507 109.941 124.195 112.742 130.253 112.742C136.311 112.742 138.999 109.941 138.999 103.58V89.3828Z" fill="#DD303E"/>
<path d="M170.575 115.884H149.146V89.3809H153.273V112.136H170.575V115.884Z" fill="#DD303E"/>
<path d="M187.308 89.3826C196.395 89.3826 200.559 93.5468 200.559 102.633C200.559 111.72 196.395 115.884 187.308 115.884H174.89V89.3809H187.308V89.3826ZM179.017 112.137H187.308C193.821 112.137 196.433 109.373 196.433 102.635C196.433 95.8968 193.821 93.1325 187.308 93.1325H179.017V112.139V112.137Z" fill="#DD303E"/>
<path d="M230.886 115.884H226.759L225.281 107.63H209.455L207.978 115.884H203.851L206.728 99.6416C208.129 91.7294 211.007 88.7764 217.366 88.7764C223.725 88.7764 226.604 91.7294 228.005 99.6416L230.882 115.884H230.886ZM210.139 103.882H224.603L223.883 99.7544C222.975 94.529 221.195 92.5227 217.371 92.5227C213.547 92.5227 211.805 94.492 210.858 99.7544L210.139 103.882Z" fill="#DD303E"/>
<path d="M247.923 89.3826C257.01 89.3826 261.174 93.5468 261.174 102.633C261.174 111.72 257.01 115.884 247.923 115.884H235.505V89.3809H247.923V89.3826ZM239.632 112.137H247.923C254.436 112.137 257.049 109.373 257.049 102.635C257.049 95.8968 254.436 93.1325 247.923 93.1325H239.632V112.139V112.137Z" fill="#DD303E"/>
<path d="M289.001 115.884H266.437V89.3809H289.001V93.0902H270.564V100.322H287.866V104.031H270.564V112.171H289.001V115.882V115.884Z" fill="#DD303E"/>
<path d="M273.995 4.33851V53.5926L247.42 8.57847L246.616 7.24742L246.611 7.25448C244.286 3.63155 240.603 2.0625 235.977 2.0625C230.169 2.0625 224.995 5.91461 224.995 12.5346V71.136H239.674V21.8802C248.801 37.3291 257.926 52.7781 267.053 68.2254L267.058 68.2183C269.383 71.8412 273.066 73.4103 277.694 73.4103C283.501 73.4103 288.676 69.5582 288.676 62.9382V4.33851H273.997H273.995Z" fill="#0D134C"/>
<path d="M182.029 2.06104C165.563 2.06104 158.558 9.50433 155.011 30.5931L148.278 71.1346H162.925L166.049 51.9992H197.917L201.041 71.1346H215.688L208.957 30.5931C205.409 9.50433 198.403 2.06104 182.029 2.06104ZM168.202 39.3727L169.566 31.0709C171.477 19.8107 174.57 15.8987 182.029 15.8987C189.488 15.8987 192.49 19.8107 194.401 31.0709L195.766 39.3727H168.202Z" fill="#0D134C"/>
<path d="M18.8845 24.9109L18.8915 24.9003C23.031 18.3632 30.4161 14.7491 38.6545 15.2533C46.8506 15.7452 53.7245 20.1702 57.0689 27.0935H68.1051V16.2141C61.2947 6.30442 49.8724 0 37.4152 0C37.3623 0 37.3094 0 37.2547 0C20.7515 0 6.05705 11.0556 1.5068 26.9066L1.45215 27.0952H17.5975C17.9924 26.3319 18.4244 25.5967 18.8845 24.9109Z" fill="#DD303E"/>
<path d="M68.1054 34.5791H33.2513V47.2038H54.9024V51.2939C49.409 59.8673 39.8378 61.9934 31.885 59.8779C22.4125 57.3568 13.2185 48.4432 15.4152 34.8294L15.4575 34.5826H0.246523L0.22713 34.7166C-0.952304 44.9983 2.49961 55.4722 9.69786 63.4532C16.8767 71.4113 26.9574 74.7327 37.329 74.6058C37.4613 74.6058 37.5935 74.6076 37.7257 74.6076C46.3396 74.6076 51.5863 69.7417 54.9042 66.7817V71.138H68.1071V34.5826L68.1054 34.5791Z" fill="#0D134C"/>
<path d="M141.104 26.2807C141.104 12.1575 134.827 4.33691 120.817 4.33691H81.2734V71.1345H95.9203V47.2055H110.569L124.837 71.1345H141.104L125.366 46.5074C136.282 44.1221 141.104 38.1138 141.104 26.2825V26.2807ZM117.004 34.5791H95.922V16.9651H117.004C122.37 16.9651 126.459 20.4294 126.459 25.773C126.459 31.1166 122.372 34.5808 117.004 34.5808V34.5791Z" fill="#0D134C"/>
</g>
<defs>
<clipPath id="clip0_3572_7454">
<rect width="289" height="116.491" fill="white"/>
</clipPath>
</defs>
</svg>
